<svg width="31" height="24" viewBox="0 0 31 24" fill="none" xmlns="http://www.w3.org/2000/svg">
<path d="M8.75588 13.4868H16.6924V21.1817H13.4211L13.0308 17.8918C12.6591 19.069 11.9962 19.9426 11.042 20.5126C10.0879 21.0825 8.92316 21.3675 7.54774 21.3675C6.29623 21.3675 5.18103 21.0887 4.20213 20.5311C3.23562 19.9735 2.47356 19.1743 1.91596 18.1335C1.37075 17.0926 1.09814 15.8783 1.09814 14.4905C1.09814 12.2724 1.76107 10.5191 3.08692 9.23041C4.41278 7.94173 6.47591 7.29739 9.27631 7.29739C10.8748 7.29739 12.2812 7.5576 13.4955 8.07803C14.7222 8.59846 15.7631 9.40388 16.6181 10.4943C16.0605 10.7793 14.97 11.3493 13.3468 12.2043L12.8821 12.4645C12.3989 11.9812 11.8351 11.6219 11.1907 11.3865C10.5464 11.1386 9.86489 11.0147 9.1462 11.0147C7.95665 11.0147 7.07068 11.3307 6.4883 11.9627C5.90591 12.5822 5.61472 13.3505 5.61472 14.2674C5.61472 15.2587 5.9245 16.0579 6.54406 16.6651C7.17601 17.2723 8.13632 17.5758 9.425 17.5758C9.9826 17.5758 10.5216 17.4953 11.042 17.3342C11.5749 17.1731 12.0209 16.8943 12.3803 16.4978H8.75588V13.4868Z" fill="#BABABA"/>
<path d="M28.9968 6.53627C27.0514 6.47432 25.1618 6.43714 23.3279 6.42475V16.127H18.6812V6.42475C16.8349 6.43714 14.9515 6.47432 13.0308 6.53627V2.63306H28.9968V6.53627Z" fill="#BABABA"/>
</svg>
