<svg width="81" height="17" viewBox="0 0 81 17" fill="none" xmlns="http://www.w3.org/2000/svg">
<path d="M5.05561 13.192C4.17027 13.192 3.31161 13.0747 2.47961 12.84C1.65827 12.5947 0.996941 12.28 0.495607 11.896L1.37561 9.944C1.85561 10.296 2.42627 10.5787 3.08761 10.792C3.74894 11.0053 4.41027 11.112 5.07161 11.112C5.80761 11.112 6.35161 11.0053 6.70361 10.792C7.05561 10.568 7.23161 10.2747 7.23161 9.912C7.23161 9.64533 7.12494 9.42667 6.91161 9.256C6.70894 9.07467 6.44227 8.93067 6.11161 8.824C5.79161 8.71733 5.35427 8.6 4.79961 8.472C3.94627 8.26933 3.24761 8.06667 2.70361 7.864C2.15961 7.66133 1.69027 7.336 1.29561 6.888C0.911607 6.44 0.719607 5.84267 0.719607 5.096C0.719607 4.44533 0.895607 3.85867 1.24761 3.336C1.59961 2.80267 2.12761 2.38133 2.83161 2.072C3.54627 1.76267 4.41561 1.608 5.43961 1.608C6.15427 1.608 6.85294 1.69333 7.53561 1.864C8.21827 2.03467 8.81561 2.28 9.32761 2.6L8.52761 4.568C7.49294 3.98133 6.45827 3.688 5.42361 3.688C4.69827 3.688 4.15961 3.80533 3.80761 4.04C3.46627 4.27467 3.29561 4.584 3.29561 4.968C3.29561 5.352 3.49294 5.64 3.88761 5.832C4.29294 6.01333 4.90627 6.19467 5.72761 6.376C6.58094 6.57867 7.27961 6.78133 7.82361 6.984C8.36761 7.18667 8.83161 7.50667 9.21561 7.944C9.61027 8.38133 9.80761 8.97333 9.80761 9.72C9.80761 10.36 9.62627 10.9467 9.26361 11.48C8.91161 12.0027 8.37827 12.4187 7.66361 12.728C6.94894 13.0373 6.07961 13.192 5.05561 13.192ZM10.7627 4.392H13.2587V13H10.7627V4.392ZM12.0107 3.192C11.5521 3.192 11.1787 3.05867 10.8907 2.792C10.6027 2.52533 10.4587 2.19467 10.4587 1.8C10.4587 1.40533 10.6027 1.07467 10.8907 0.808C11.1787 0.541333 11.5521 0.407999 12.0107 0.407999C12.4694 0.407999 12.8427 0.535999 13.1307 0.792C13.4187 1.048 13.5627 1.368 13.5627 1.752C13.5627 2.168 13.4187 2.51467 13.1307 2.792C12.8427 3.05867 12.4694 3.192 12.0107 3.192ZM23.8152 4.392V11.56C23.8152 13.1387 23.4046 14.312 22.5832 15.08C21.7619 15.848 20.5619 16.232 18.9832 16.232C18.1512 16.232 17.3619 16.1307 16.6152 15.928C15.8686 15.7253 15.2499 15.432 14.7592 15.048L15.7512 13.256C16.1139 13.5547 16.5726 13.7893 17.1272 13.96C17.6819 14.1413 18.2366 14.232 18.7912 14.232C19.6552 14.232 20.2899 14.0347 20.6952 13.64C21.1112 13.256 21.3192 12.6693 21.3192 11.88V11.512C20.6686 12.2267 19.7619 12.584 18.5992 12.584C17.8099 12.584 17.0846 12.4133 16.4232 12.072C15.7726 11.72 15.2552 11.2293 14.8712 10.6C14.4872 9.97067 14.2952 9.24533 14.2952 8.424C14.2952 7.60267 14.4872 6.87733 14.8712 6.248C15.2552 5.61867 15.7726 5.13333 16.4232 4.792C17.0846 4.44 17.8099 4.264 18.5992 4.264C19.8472 4.264 20.7966 4.67467 21.4472 5.496V4.392H23.8152ZM19.0952 10.536C19.7566 10.536 20.2952 10.344 20.7112 9.96C21.1379 9.56533 21.3512 9.05333 21.3512 8.424C21.3512 7.79467 21.1379 7.288 20.7112 6.904C20.2952 6.50933 19.7566 6.312 19.0952 6.312C18.4339 6.312 17.8899 6.50933 17.4632 6.904C17.0366 7.288 16.8232 7.79467 16.8232 8.424C16.8232 9.05333 17.0366 9.56533 17.4632 9.96C17.8899 10.344 18.4339 10.536 19.0952 10.536ZM30.7304 4.264C31.797 4.264 32.6557 4.584 33.3064 5.224C33.9677 5.864 34.2984 6.81333 34.2984 8.072V13H31.8024V8.456C31.8024 7.77333 31.653 7.26667 31.3544 6.936C31.0557 6.59467 30.6237 6.424 30.0584 6.424C29.429 6.424 28.9277 6.62133 28.5544 7.016C28.181 7.4 27.9944 7.976 27.9944 8.744V13H25.4984V4.392H27.8824V5.4C28.213 5.03733 28.6237 4.76 29.1144 4.568C29.605 4.36533 30.1437 4.264 30.7304 4.264ZM45.4121 13.192C44.2494 13.192 43.1988 12.9413 42.2601 12.44C41.3321 11.9387 40.6014 11.2507 40.0681 10.376C39.5454 9.49067 39.2841 8.49867 39.2841 7.4C39.2841 6.30133 39.5454 5.31467 40.0681 4.44C40.6014 3.55467 41.3321 2.86133 42.2601 2.36C43.1988 1.85867 44.2494 1.608 45.4121 1.608C46.5748 1.608 47.6201 1.85867 48.5481 2.36C49.4761 2.86133 50.2068 3.55467 50.7401 4.44C51.2734 5.31467 51.5401 6.30133 51.5401 7.4C51.5401 8.49867 51.2734 9.49067 50.7401 10.376C50.2068 11.2507 49.4761 11.9387 48.5481 12.44C47.6201 12.9413 46.5748 13.192 45.4121 13.192ZM45.4121 10.984C46.0734 10.984 46.6708 10.8347 47.2041 10.536C47.7374 10.2267 48.1534 9.8 48.4521 9.256C48.7614 8.712 48.9161 8.09333 48.9161 7.4C48.9161 6.70667 48.7614 6.088 48.4521 5.544C48.1534 5 47.7374 4.57867 47.2041 4.28C46.6708 3.97067 46.0734 3.816 45.4121 3.816C44.7508 3.816 44.1534 3.97067 43.6201 4.28C43.0868 4.57867 42.6654 5 42.3561 5.544C42.0574 6.088 41.9081 6.70667 41.9081 7.4C41.9081 8.09333 42.0574 8.712 42.3561 9.256C42.6654 9.8 43.0868 10.2267 43.6201 10.536C44.1534 10.8347 44.7508 10.984 45.4121 10.984ZM61.3441 4.392V13H58.9761V11.976C58.6454 12.3493 58.2508 12.6373 57.7921 12.84C57.3334 13.032 56.8374 13.128 56.3041 13.128C55.1734 13.128 54.2774 12.8027 53.6161 12.152C52.9548 11.5013 52.6241 10.536 52.6241 9.256V4.392H55.1201V8.888C55.1201 10.2747 55.7014 10.968 56.8641 10.968C57.4614 10.968 57.9414 10.776 58.3041 10.392C58.6668 9.99733 58.8481 9.416 58.8481 8.648V4.392H61.3441ZM68.5685 12.584C68.3231 12.7653 68.0191 12.904 67.6565 13C67.3045 13.0853 66.9311 13.128 66.5365 13.128C65.5125 13.128 64.7178 12.8667 64.1525 12.344C63.5978 11.8213 63.3205 11.0533 63.3205 10.04V6.504H61.9925V4.584H63.3205V2.488H65.8165V4.584H67.9605V6.504H65.8165V10.008C65.8165 10.3707 65.9071 10.6533 66.0885 10.856C66.2805 11.048 66.5471 11.144 66.8885 11.144C67.2831 11.144 67.6191 11.0373 67.8965 10.824L68.5685 12.584ZM80.4849 8.584L78.1169 12.216H75.9569L77.6209 9.448H72.8689V7.72H77.6049L75.9569 4.984H78.1169L80.4849 8.584Z" fill="black"/>
</svg>
