<svg width="31" height="24" viewBox="0 0 31 24" fill="none" xmlns="http://www.w3.org/2000/svg">
<path fill-rule="evenodd" clip-rule="evenodd" d="M24.7748 3.68454C25.873 3.99832 26.6575 4.78277 26.9713 5.88101C27.5988 7.92058 27.5988 11.9997 27.5988 11.9997C27.5988 11.9997 27.5988 16.0789 27.1282 18.1185C26.8144 19.2167 26.0299 20.0011 24.9317 20.3149C22.8921 20.7856 15.0476 20.7856 15.0476 20.7856C15.0476 20.7856 7.04616 20.7856 5.16347 20.3149C4.06524 20.0011 3.28079 19.2167 2.96701 18.1185C2.49634 16.0789 2.49634 11.9997 2.49634 11.9997C2.49634 11.9997 2.49633 7.92058 2.81011 5.88101C3.12389 4.78277 3.90836 3.99832 5.00659 3.68454C7.04617 3.21387 14.8907 3.21387 14.8907 3.21387C14.8907 3.21387 22.8921 3.21387 24.7748 3.68454ZM12.5373 8.92363C12.5373 8.6165 12.8691 8.42396 13.1358 8.57634L18.519 11.6524C18.7877 11.806 18.7877 12.1935 18.519 12.347L13.1358 15.4231C12.8691 15.5755 12.5373 15.383 12.5373 15.0758V8.92363Z" fill="#BABABA"/>
</svg>
